<?xml version="1.0" encoding="UTF-8"?>
<svg width="64px" height="64px" viewBox="0 0 64 64" version="1.1" xmlns="http://www.w3.org/2000/svg" xmlns:xlink="http://www.w3.org/1999/xlink">
    <!-- Generator: Sketch 51 (57462) - http://www.bohemiancoding.com/sketch -->
    <title>calc-icon-white</title>
    <desc>Created with Sketch.</desc>
    <defs></defs>
    <g id="calc-icon" stroke="none" stroke-width="1" fill="none" fill-rule="evenodd">
        <path d="M13.6670942,4 C12.3300964,4 11.0751936,4.519531 10.129131,5.464844 L1.46600721,14.121094 C0.519943551,15.066406 0,16.320313 0,17.65625 L0,57 C0,58.652344 1.34872615,60 3.00238225,60 L43.0341456,60 C44.6878017,60 46.0365278,58.652344 46.0365278,57 L46.0365278,54 L60.9976178,54 C62.6512738,54 64,52.652344 64,51 L64,17 C64,15.347656 62.6512738,14 60.9976178,14 L46.0365278,14 L46.0365278,7 C46.0365278,5.347656 44.6878017,4 43.0341456,4 L13.6670942,4 Z M14.0111172,6 L43.0341456,6 C43.5853639,6 44.0349397,6.449219 44.0349397,7 L44.0349397,14 L30.9737953,14 C29.3201392,14 27.971413,15.347656 27.971413,17 L27.971413,51 C27.971413,52.652344 29.3201392,54 30.9737953,54 L44.0349397,54 L44.0349397,57 C44.0349397,57.550781 43.5853639,58 43.0341456,58 L3.00238225,58 C2.45116388,58 2.00158817,57.550781 2.00158817,57 L2.00158817,18 L11.0087349,18 C12.662391,18 14.0111172,16.652344 14.0111172,15 L14.0111172,6 Z M12.009529,6.5 L12.009529,15 C12.009529,15.550781 11.5599533,16 11.0087349,16 L2.50198521,16 C2.60753796,15.835938 2.73654632,15.679688 2.88119209,15.535156 L11.5443159,6.878906 C11.6889626,6.738281 11.8453367,6.613281 12.009529,6.5 Z M30.9737953,16 L60.9976178,16 C61.5488361,16 61.9984118,16.449219 61.9984118,17 L61.9984118,27.949219 L29.9730012,27.949219 L29.9730012,17 C29.9730012,16.449219 30.4225769,16 30.9737953,16 Z M15.0119112,20 C10.0470349,20 6.0047645,24.039063 6.0047645,29 C6.0047645,33.960938 10.0470349,38 15.0119112,38 C19.9767886,38 24.019058,33.960938 24.019058,29 C24.019058,24.039063 19.9767886,20 15.0119112,20 Z M14.0111172,22.078125 L14.0111172,28.832031 C14.0111172,29.03125 14.081486,29.203125 14.1831286,29.359375 C14.2300409,29.492188 14.3004097,29.621094 14.4059615,29.730469 L19.2496487,34.5625 C18.0690249,35.460938 16.6030177,36 15.0119112,36 C11.1494716,36 8.00635267,32.859375 8.00635267,29 C8.00635267,25.480469 10.6217088,22.566406 14.0111172,22.078125 Z M16.0127053,22.078125 C19.4021137,22.566406 22.0174698,25.480469 22.0174698,29 C22.0174698,30.550781 21.5053445,31.976563 20.6531063,33.136719 L16.0127053,28.503906 L16.0127053,22.078125 Z M29.9730012,29.949219 L61.9984118,29.949219 L61.9984118,51 C61.9984118,51.550781 61.5488361,52 60.9976178,52 L30.9737953,52 C30.4225769,52 29.9730012,51.550781 29.9730012,51 L29.9730012,29.949219 Z M34.0269988,31.949219 C32.9245621,31.949219 32.0254107,32.847656 32.0254107,33.949219 L32.0254107,37.949219 C32.0254107,39.050781 32.9245621,39.949219 34.0269988,39.949219 L38.0301752,39.949219 C39.1326129,39.949219 40.0317633,39.050781 40.0317633,37.949219 L40.0317633,33.949219 C40.0317633,32.847656 39.1326129,31.949219 38.0301752,31.949219 L34.0269988,31.949219 Z M44.0349397,31.949219 C42.9325029,31.949219 42.0333515,32.847656 42.0333515,33.949219 L42.0333515,37.949219 C42.0333515,39.050781 42.9325029,39.949219 44.0349397,39.949219 L48.038116,39.949219 C49.1405537,39.949219 50.0397042,39.050781 50.0397042,37.949219 L50.0397042,33.949219 C50.0397042,32.847656 49.1405537,31.949219 48.038116,31.949219 L44.0349397,31.949219 Z M54.0428805,31.949219 C52.9404438,31.949219 52.0412923,32.847656 52.0412923,33.949219 L52.0412923,47.949219 C52.0412923,49.050781 52.9404438,49.949219 54.0428805,49.949219 L58.0460568,49.949219 C59.1484946,49.949219 60.047645,49.050781 60.047645,47.949219 L60.047645,33.949219 C60.047645,32.847656 59.1484946,31.949219 58.0460568,31.949219 L54.0428805,31.949219 Z M34.0269988,33.949219 L38.0301752,33.949219 L38.0301752,37.949219 L34.0269988,37.949219 L34.0269988,33.949219 Z M44.0349397,33.949219 L48.038116,33.949219 L48.038116,37.949219 L44.0349397,37.949219 L44.0349397,33.949219 Z M54.0428805,33.949219 L58.0460568,33.949219 L58.0460568,47.949219 L54.0428805,47.949219 L54.0428805,33.949219 Z M34.0269988,41.949219 C32.9245621,41.949219 32.0254107,42.847656 32.0254107,43.949219 L32.0254107,47.949219 C32.0254107,49.050781 32.9245621,49.949219 34.0269988,49.949219 L38.0301752,49.949219 C39.1326129,49.949219 40.0317633,49.050781 40.0317633,47.949219 L40.0317633,43.949219 C40.0317633,42.847656 39.1326129,41.949219 38.0301752,41.949219 L34.0269988,41.949219 Z M44.0349397,41.949219 C42.9325029,41.949219 42.0333515,42.847656 42.0333515,43.949219 L42.0333515,47.949219 C42.0333515,49.050781 42.9325029,49.949219 44.0349397,49.949219 L48.038116,49.949219 C49.1405537,49.949219 50.0397042,49.050781 50.0397042,47.949219 L50.0397042,43.949219 C50.0397042,42.847656 49.1405537,41.949219 48.038116,41.949219 L44.0349397,41.949219 Z M13.0103231,42 C12.4591047,42 12.009529,42.449219 12.009529,43 L12.009529,45 L9.00714675,45 C8.45592838,45 8.00635267,45.449219 8.00635267,46 L8.00635267,51.949219 L4.95314909,51.949219 C4.40193073,51.949219 3.95235501,52.398438 3.95235501,52.949219 C3.95235501,53.5 4.40193073,53.949219 4.95314909,53.949219 L24.9690308,53.949219 C25.5202491,53.949219 25.9698248,53.5 25.9698248,52.949219 C25.9698248,52.398438 25.5202491,51.949219 24.9690308,51.949219 L22.0174698,51.949219 L22.0174698,49 C22.0174698,48.449219 21.5678941,48 21.0166757,48 L18.0142935,48 L18.0142935,43 C18.0142935,42.449219 17.5647178,42 17.0134994,42 L13.0103231,42 Z M34.0269988,43.949219 L38.0301752,43.949219 L38.0301752,47.949219 L34.0269988,47.949219 L34.0269988,43.949219 Z M44.0349397,43.949219 L48.038116,43.949219 L48.038116,47.949219 L44.0349397,47.949219 L44.0349397,43.949219 Z M14.0111172,44 L16.0127053,44 L16.0127053,51.949219 L14.0111172,51.949219 L14.0111172,44 Z M10.0079408,47 L12.009529,47 L12.009529,51.949219 L10.0079408,51.949219 L10.0079408,47 Z M18.0142935,50 L20.0158817,50 L20.0158817,51.949219 L18.0142935,51.949219 L18.0142935,50 Z" id="icon" fill="#FFFFFF" fill-rule="nonzero"></path>
    </g>
</svg>