<?xml version="1.0" encoding="UTF-8"?>
<svg width="64px" height="64px" viewBox="0 0 64 64" version="1.1" xmlns="http://www.w3.org/2000/svg" xmlns:xlink="http://www.w3.org/1999/xlink">
    <!-- Generator: Sketch 51 (57462) - http://www.bohemiancoding.com/sketch -->
    <title>cms-icon</title>
    <desc>Created with Sketch.</desc>
    <defs></defs>
    <g id="cms-icon" stroke="none" stroke-width="1" fill="none" fill-rule="evenodd">
        <path d="M32,3.957031 C31.117188,3.957031 30.230469,4.191406 29.441406,4.664063 L4.671875,19.421875 C3.757813,19.96875 3.207031,20.933594 3.207031,22 C3.207031,23.066406 3.757813,24.03125 4.671875,24.578125 L8.738281,27 L4.671875,29.421875 C3.757813,29.96875 3.207031,30.933594 3.207031,32 C3.207031,33.066406 3.757813,34.03125 4.671875,34.578125 L8.738281,37 L4.671875,39.421875 C3.757813,39.96875 3.207031,40.933594 3.207031,42 C3.207031,43.066406 3.757813,44.03125 4.671875,44.578125 L29.441406,59.339844 C30.230469,59.808594 31.117188,60.042969 32,60.042969 C32.886719,60.042969 33.773438,59.808594 34.5625,59.339844 L59.328125,44.578125 C60.246094,44.03125 60.796875,43.066406 60.796875,42 C60.796875,40.933594 60.246094,39.96875 59.328125,39.421875 L55.261719,37 L59.328125,34.578125 C60.242188,34.03125 60.792969,33.066406 60.792969,32 C60.792969,30.933594 60.242188,29.96875 59.328125,29.421875 L55.261719,27 L59.328125,24.578125 C60.242188,24.03125 60.792969,23.066406 60.792969,22 C60.792969,20.933594 60.242188,19.96875 59.328125,19.421875 L34.5625,4.664063 C33.773438,4.191406 32.886719,3.957031 32,3.957031 Z M32,5.957031 C32.53125,5.957031 33.0625,6.097656 33.535156,6.382813 L58.304688,21.140625 C58.746094,21.402344 58.792969,21.828125 58.792969,22 C58.792969,22.171875 58.746094,22.597656 58.304688,22.859375 L32.511719,38.230469 C32.195313,38.417969 31.804688,38.417969 31.488281,38.230469 L5.695313,22.859375 C5.253906,22.597656 5.207031,22.171875 5.207031,22 C5.207031,21.828125 5.253906,21.402344 5.695313,21.140625 L30.464844,6.382813 C30.9375,6.097656 31.46875,5.957031 32,5.957031 Z M12,20 C11.445313,20 11,20.449219 11,21 L11,23 C11,23.550781 11.445313,24 12,24 C12.554688,24 13,23.550781 13,23 L13,21 C13,20.449219 12.554688,20 12,20 Z M17,20 C16.445313,20 16,20.449219 16,21 L16,23 C16,23.550781 16.445313,24 17,24 C17.554688,24 18,23.550781 18,23 L18,21 C18,20.449219 17.554688,20 17,20 Z M22,20 C21.445313,20 21,20.449219 21,21 L21,23 C21,23.550781 21.445313,24 22,24 C22.554688,24 23,23.550781 23,23 L23,21 C23,20.449219 22.554688,20 22,20 Z M27,20 C26.445313,20 26,20.449219 26,21 L26,23 C26,23.550781 26.445313,24 27,24 C27.554688,24 28,23.550781 28,23 L28,21 C28,20.449219 27.554688,20 27,20 Z M32,20 C31.445313,20 31,20.449219 31,21 L31,23 C31,23.550781 31.445313,24 32,24 C32.554688,24 33,23.550781 33,23 L33,21 C33,20.449219 32.554688,20 32,20 Z M37,20 C36.445313,20 36,20.449219 36,21 L36,23 C36,23.550781 36.445313,24 37,24 C37.554688,24 38,23.550781 38,23 L38,21 C38,20.449219 37.554688,20 37,20 Z M42,20 C41.445313,20 41,20.449219 41,21 L41,23 C41,23.550781 41.445313,24 42,24 C42.554688,24 43,23.550781 43,23 L43,21 C43,20.449219 42.554688,20 42,20 Z M47,20 C46.445313,20 46,20.449219 46,21 L46,23 C46,23.550781 46.445313,24 47,24 C47.554688,24 48,23.550781 48,23 L48,21 C48,20.449219 47.554688,20 47,20 Z M52,20 C51.445313,20 51,20.449219 51,21 L51,23 C51,23.550781 51.445313,24 52,24 C52.554688,24 53,23.550781 53,23 L53,21 C53,20.449219 52.554688,20 52,20 Z M10.691406,28.164063 L30.464844,39.949219 C30.9375,40.230469 31.46875,40.371094 32,40.371094 C32.527344,40.371094 33.058594,40.230469 33.53125,39.949219 L53.308594,28.164063 L58.300781,31.140625 C58.742188,31.402344 58.789063,31.828125 58.789063,32 C58.789063,32.171875 58.746094,32.597656 58.304688,32.859375 L33.535156,47.621094 C32.589844,48.183594 31.410156,48.183594 30.464844,47.621094 L5.695313,32.859375 C5.253906,32.597656 5.207031,32.171875 5.207031,32 C5.207031,31.828125 5.253906,31.402344 5.695313,31.140625 L10.691406,28.164063 Z M10.691406,38.164063 L29.4375,49.339844 C30.226563,49.808594 31.113281,50.042969 32,50.042969 C32.886719,50.042969 33.773438,49.808594 34.5625,49.339844 L53.308594,38.164063 L58.304688,41.140625 C58.746094,41.402344 58.792969,41.828125 58.792969,42 C58.792969,42.171875 58.746094,42.597656 58.304688,42.859375 L33.535156,57.621094 C32.589844,58.183594 31.410156,58.183594 30.464844,57.621094 L5.695313,42.859375 C5.253906,42.597656 5.207031,42.171875 5.207031,42 C5.207031,41.828125 5.253906,41.402344 5.695313,41.140625 L10.691406,38.164063 Z" id="icon" fill="#20242E" fill-rule="nonzero"></path>
    </g>
</svg>