<?xml version="1.0" encoding="UTF-8"?>
<svg width="64px" height="64px" viewBox="0 0 64 64" version="1.1" xmlns="http://www.w3.org/2000/svg" xmlns:xlink="http://www.w3.org/1999/xlink">
    <!-- Generator: Sketch 51 (57462) - http://www.bohemiancoding.com/sketch -->
    <title>coffee-icon-white</title>
    <desc>Created with Sketch.</desc>
    <defs></defs>
    <g id="coffee-icon" stroke="none" stroke-width="1" fill="none" fill-rule="evenodd">
        <path d="M34,0.015625 C33.871094,0.042969 33.746094,0.089844 33.632813,0.167969 C33.171875,0.476563 33.046875,1.09375 33.355469,1.554688 L34.714844,3.585938 C34.914063,3.886719 34.933594,4.269531 34.777344,4.59375 L33.8125,6.519531 C33.332031,7.472656 33.402344,8.625 33.988281,9.515625 L34.625,10.472656 C34.84375,10.8125 34.84375,11.246094 34.621094,11.578125 L34.09375,12.375 C33.421875,13.378906 33.421875,14.679688 34.085938,15.6875 L34.613281,16.496094 C34.839844,16.835938 34.835938,17.273438 34.609375,17.609375 L33.363281,19.4375 C33.050781,19.894531 33.171875,20.515625 33.625,20.828125 C33.800781,20.941406 33.996094,21 34.1875,21 C34.507813,21 34.824219,20.847656 35.015625,20.5625 L36.261719,18.734375 C36.949219,17.726563 36.957031,16.414063 36.285156,15.390625 L35.753906,14.589844 C35.53125,14.25 35.53125,13.816406 35.753906,13.484375 L36.285156,12.6875 C36.957031,11.679688 36.957031,10.378906 36.292969,9.371094 L35.65625,8.414063 C35.460938,8.113281 35.441406,7.734375 35.597656,7.414063 L36.5625,5.484375 C37.042969,4.523438 36.972656,3.375 36.375,2.476563 L35.019531,0.445313 C34.789063,0.101563 34.382813,-0.054687 34,0.015625 Z M28.003906,7.015625 C27.878906,7.039063 27.753906,7.085938 27.636719,7.164063 C27.175781,7.46875 27.050781,8.085938 27.355469,8.546875 L28.625,10.472656 C28.84375,10.8125 28.84375,11.242188 28.621094,11.578125 L28.09375,12.375 C27.421875,13.378906 27.421875,14.679688 28.085938,15.6875 L28.613281,16.496094 C28.839844,16.835938 28.835938,17.269531 28.609375,17.609375 L27.363281,19.4375 C27.050781,19.894531 27.171875,20.515625 27.625,20.828125 C27.800781,20.945313 27.996094,21 28.1875,21 C28.507813,21 28.824219,20.847656 29.015625,20.5625 L30.261719,18.734375 C30.949219,17.726563 30.957031,16.414063 30.285156,15.390625 L29.753906,14.589844 C29.53125,14.25 29.53125,13.816406 29.753906,13.484375 L30.285156,12.6875 C30.957031,11.679688 30.957031,10.378906 30.292969,9.371094 L29.023438,7.445313 C28.796875,7.101563 28.390625,6.945313 28.003906,7.015625 Z M42.375,10.046875 C41.992188,9.972656 41.585938,10.128906 41.359375,10.472656 L40.09375,12.371094 C39.421875,13.375 39.417969,14.679688 40.082031,15.6875 L40.613281,16.492188 C40.839844,16.832031 40.835938,17.269531 40.609375,17.609375 L39.359375,19.4375 C39.050781,19.890625 39.171875,20.511719 39.625,20.824219 C39.800781,20.941406 39.996094,21 40.1875,21 C40.507813,21 40.824219,20.847656 41.015625,20.5625 L42.261719,18.734375 C42.949219,17.726563 42.957031,16.414063 42.285156,15.390625 L41.753906,14.589844 C41.53125,14.25 41.53125,13.816406 41.753906,13.484375 L43.019531,11.585938 C43.328125,11.125 43.203125,10.503906 42.746094,10.199219 C42.628906,10.121094 42.503906,10.070313 42.375,10.046875 Z M22.003906,13.046875 C21.878906,13.070313 21.753906,13.121094 21.636719,13.195313 C21.175781,13.5 21.050781,14.121094 21.355469,14.582031 L22.613281,16.496094 C22.839844,16.835938 22.835938,17.269531 22.609375,17.609375 L21.363281,19.4375 C21.050781,19.894531 21.171875,20.515625 21.625,20.828125 C21.800781,20.945313 21.996094,21 22.1875,21 C22.507813,21 22.824219,20.847656 23.015625,20.5625 L24.261719,18.734375 C24.949219,17.726563 24.957031,16.414063 24.285156,15.390625 L23.023438,13.480469 C22.796875,13.136719 22.390625,12.976563 22.003906,13.046875 Z M10.617188,23 C9.996094,23 9.425781,23.28125 9.042969,23.769531 C8.660156,24.257813 8.527344,24.882813 8.679688,25.484375 L13.527344,44.882813 C14.3125,48.03125 16.066406,50.871094 18.480469,53 L4.1875,53 C3.808594,53 3.464844,53.214844 3.296875,53.554688 C3.125,53.894531 3.164063,54.296875 3.390625,54.597656 L4.589844,56.199219 C5.902344,57.953125 7.996094,59 10.1875,59 L52.1875,59 C54.378906,59 56.472656,57.953125 57.789063,56.199219 L58.988281,54.597656 C59.21875,54.296875 59.253906,53.890625 59.085938,53.550781 C58.914063,53.214844 58.570313,53 58.1875,53 L44.832031,53 C46.730469,51.324219 48.199219,49.210938 49.128906,46.851563 C52.511719,46.230469 58,44.964844 59.941406,43.019531 C61.269531,41.695313 62,39.933594 62,38.054688 C62,36.175781 61.269531,34.414063 59.941406,33.085938 C58.003906,31.148438 55.210938,30.574219 52.738281,31.410156 L54.046875,25.429688 C54.179688,24.835938 54.035156,24.21875 53.652344,23.746094 C53.269531,23.269531 52.703125,23 52.09375,23 L10.617188,23 Z M10.617188,25 L52.09375,25 L47.9375,43.992188 C47.117188,47.753906 44.753906,51.019531 41.453125,53 L21.855469,53 C18.6875,51.097656 16.363281,47.980469 15.46875,44.394531 L10.617188,25 Z M15,27 C14.445313,27 14,27.449219 14,28 C14,28.550781 14.445313,29 15,29 L19,29 C19.554688,29 20,28.550781 20,28 C20,27.449219 19.554688,27 19,27 L15,27 Z M23,27 C22.445313,27 22,27.449219 22,28 C22,28.550781 22.445313,29 23,29 L48,29 C48.554688,29 49,28.550781 49,28 C49,27.449219 48.554688,27 48,27 L23,27 Z M54.625,33.042969 C56.035156,32.941406 57.460938,33.433594 58.527344,34.5 C59.476563,35.449219 60,36.710938 60,38.054688 C60,39.398438 59.476563,40.660156 58.527344,41.609375 C57.304688,42.832031 53.457031,43.949219 49.820313,44.683594 C49.839844,44.59375 49.871094,44.507813 49.890625,44.421875 L52.199219,33.875 C52.945313,33.375 53.78125,33.101563 54.625,33.042969 Z M19,45 C18.445313,45 18,45.449219 18,46 L18,48 C18,48.550781 18.445313,49 19,49 C19.554688,49 20,48.550781 20,48 L20,46 C20,45.449219 19.554688,45 19,45 Z M24,45 C23.445313,45 23,45.449219 23,46 L23,48 C23,48.550781 23.445313,49 24,49 C24.554688,49 25,48.550781 25,48 L25,46 C25,45.449219 24.554688,45 24,45 Z M29,45 C28.445313,45 28,45.449219 28,46 L28,48 C28,48.550781 28.445313,49 29,49 C29.554688,49 30,48.550781 30,48 L30,46 C30,45.449219 29.554688,45 29,45 Z M34,45 C33.445313,45 33,45.449219 33,46 L33,48 C33,48.550781 33.445313,49 34,49 C34.554688,49 35,48.550781 35,48 L35,46 C35,45.449219 34.554688,45 34,45 Z M39,45 C38.445313,45 38,45.449219 38,46 L38,48 C38,48.550781 38.445313,49 39,49 C39.554688,49 40,48.550781 40,48 L40,46 C40,45.449219 39.554688,45 39,45 Z M44,45 C43.445313,45 43,45.449219 43,46 L43,48 C43,48.550781 43.445313,49 44,49 C44.554688,49 45,48.550781 45,48 L45,46 C45,45.449219 44.554688,45 44,45 Z M6.1875,55 L56.1875,55 C55.25,56.253906 53.753906,57 52.1875,57 L10.1875,57 C8.625,57 7.128906,56.253906 6.1875,55 Z" id="icon" fill="#FFFFFF" fill-rule="nonzero"></path>
    </g>
</svg>