<?xml version="1.0" encoding="UTF-8"?>
<svg width="64px" height="64px" viewBox="0 0 64 64" version="1.1" xmlns="http://www.w3.org/2000/svg" xmlns:xlink="http://www.w3.org/1999/xlink">
    <!-- Generator: Sketch 51 (57462) - http://www.bohemiancoding.com/sketch -->
    <title>design-icon</title>
    <desc>Created with Sketch.</desc>
    <defs></defs>
    <g id="design-icon" stroke="none" stroke-width="1" fill="none" fill-rule="evenodd">
        <path d="M31,0 C29.347656,0 28,1.347656 28,3 L28,7.765625 C23.910156,9.367188 21,13.347656 21,18 C21,19.207031 21.203125,20.367188 21.5625,21.453125 L13.46875,42 L9.722656,42 C9.375,41.40625 8.738281,41 8,41 C6.898438,41 6,41.898438 6,43 C6,44.101563 6.898438,45 8,45 C8.738281,45 9.375,44.59375 9.722656,44 L12.683594,44 L10.90625,48.515625 C10.304688,50.039063 10,51.640625 10,53.277344 L10,63 C10,63.46875 10.328125,63.875 10.78125,63.976563 C10.855469,63.992188 10.929688,64 11,64 C11.382813,64 11.738281,63.78125 11.90625,63.421875 L20.96875,44 L28,44 L28,45 C28,46.652344 29.347656,48 31,48 L33,48 C34.652344,48 36,46.652344 36,45 L36,44 L43.03125,44 L52.09375,63.421875 C52.261719,63.78125 52.617188,64 53,64 C53.070313,64 53.144531,63.992188 53.21875,63.976563 C53.671875,63.875 54,63.46875 54,63 L54,53.277344 C54,51.640625 53.695313,50.039063 53.09375,48.515625 L51.316406,44 L54.277344,44 C54.625,44.59375 55.261719,45 56,45 C57.101563,45 58,44.101563 58,43 C58,41.898438 57.101563,41 56,41 C55.261719,41 54.625,41.40625 54.277344,42 L50.53125,42 L42.4375,21.453125 C42.796875,20.367188 43,19.207031 43,18 C43,13.347656 40.089844,9.367188 36,7.765625 L36,3 C36,1.347656 34.652344,0 33,0 L31,0 Z M31,2 L33,2 C33.550781,2 34,2.449219 34,3 L34,7.191406 C33.351563,7.070313 32.683594,7 32,7 C31.316406,7 30.648438,7.070313 30,7.191406 L30,3 C30,2.449219 30.449219,2 31,2 Z M32,9 C36.960938,9 41,13.035156 41,18 C41,22.964844 36.960938,27 32,27 C27.039063,27 23,22.964844 23,18 C23,13.035156 27.039063,9 32,9 Z M32,16 C30.894531,16 30,16.894531 30,18 C30,19.105469 30.894531,20 32,20 C33.105469,20 34,19.105469 34,18 C34,16.894531 33.105469,16 32,16 Z M22.742188,23.921875 C23.683594,25.386719 24.960938,26.609375 26.46875,27.492188 L12,58.492188 L12,53.277344 C12,51.890625 12.257813,50.535156 12.765625,49.246094 L22.742188,23.921875 Z M41.257813,23.921875 L51.234375,49.246094 C51.742188,50.535156 52,51.890625 52,53.277344 L52,58.492188 L37.53125,27.492188 C39.039063,26.609375 40.316406,25.386719 41.257813,23.921875 Z M28.28125,28.339844 C29.441406,28.757813 30.691406,29 32,29 C33.308594,29 34.558594,28.757813 35.71875,28.339844 L42.09375,42 L36,42 L36,41 C36,39.347656 34.652344,38 33,38 L31,38 C29.347656,38 28,39.347656 28,41 L28,42 L21.90625,42 L28.28125,28.339844 Z M31,40 L33,40 C33.550781,40 34,40.449219 34,41 L34,45 C34,45.550781 33.550781,46 33,46 L31,46 C30.449219,46 30,45.550781 30,45 L30,41 C30,40.449219 30.449219,40 31,40 Z M17,60 C16.449219,60 16,60.445313 16,61 L16,63 C16,63.554688 16.449219,64 17,64 C17.550781,64 18,63.554688 18,63 L18,61 C18,60.445313 17.550781,60 17,60 Z M22,60 C21.449219,60 21,60.445313 21,61 L21,63 C21,63.554688 21.449219,64 22,64 C22.550781,64 23,63.554688 23,63 L23,61 C23,60.445313 22.550781,60 22,60 Z M27,60 C26.449219,60 26,60.445313 26,61 L26,63 C26,63.554688 26.449219,64 27,64 C27.550781,64 28,63.554688 28,63 L28,61 C28,60.445313 27.550781,60 27,60 Z M32,60 C31.449219,60 31,60.445313 31,61 L31,63 C31,63.554688 31.449219,64 32,64 C32.550781,64 33,63.554688 33,63 L33,61 C33,60.445313 32.550781,60 32,60 Z M37,60 C36.449219,60 36,60.445313 36,61 L36,63 C36,63.554688 36.449219,64 37,64 C37.550781,64 38,63.554688 38,63 L38,61 C38,60.445313 37.550781,60 37,60 Z M42,60 C41.449219,60 41,60.445313 41,61 L41,63 C41,63.554688 41.449219,64 42,64 C42.550781,64 43,63.554688 43,63 L43,61 C43,60.445313 42.550781,60 42,60 Z M47,60 C46.449219,60 46,60.445313 46,61 L46,63 C46,63.554688 46.449219,64 47,64 C47.550781,64 48,63.554688 48,63 L48,61 C48,60.445313 47.550781,60 47,60 Z" id="icon" fill="#20242E" fill-rule="nonzero"></path>
    </g>
</svg>