<?xml version="1.0" encoding="UTF-8"?>
<svg width="64px" height="64px" viewBox="0 0 64 64" version="1.1" xmlns="http://www.w3.org/2000/svg" xmlns:xlink="http://www.w3.org/1999/xlink">
    <!-- Generator: Sketch 51 (57462) - http://www.bohemiancoding.com/sketch -->
    <title>development-icon</title>
    <desc>Created with Sketch.</desc>
    <defs></defs>
    <g id="development-icon" stroke="none" stroke-width="1" fill="none" fill-rule="evenodd">
        <path d="M7,8 C5.347656,8 4,9.347656 4,11 L4,53 C4,54.652344 5.347656,56 7,56 L57,56 C58.652344,56 60,54.652344 60,53 L60,11 C60,9.347656 58.652344,8 57,8 L7,8 Z M7,10 L57,10 C57.550781,10 58,10.449219 58,11 L58,53 C58,53.550781 57.550781,54 57,54 L7,54 C6.449219,54 6,53.550781 6,53 L6,20 L47,20 C47.554688,20 48,19.550781 48,19 C48,18.449219 47.554688,18 47,18 L6,18 L6,11 C6,10.449219 6.449219,10 7,10 Z M10,12 C9.445313,12 9,12.449219 9,13 L9,15 C9,15.550781 9.445313,16 10,16 C10.554688,16 11,15.550781 11,15 L11,13 C11,12.449219 10.554688,12 10,12 Z M15,12 C14.445313,12 14,12.449219 14,13 L14,15 C14,15.550781 14.445313,16 15,16 C15.554688,16 16,15.550781 16,15 L16,13 C16,12.449219 15.554688,12 15,12 Z M20,12 C19.445313,12 19,12.449219 19,13 L19,15 C19,15.550781 19.445313,16 20,16 C20.554688,16 21,15.550781 21,15 L21,13 C21,12.449219 20.554688,12 20,12 Z M25,12 C24.445313,12 24,12.449219 24,13 L24,15 C24,15.550781 24.445313,16 25,16 C25.554688,16 26,15.550781 26,15 L26,13 C26,12.449219 25.554688,12 25,12 Z M30,12 C29.445313,12 29,12.449219 29,13 L29,15 C29,15.550781 29.445313,16 30,16 C30.554688,16 31,15.550781 31,15 L31,13 C31,12.449219 30.554688,12 30,12 Z M35,12 C34.445313,12 34,12.449219 34,13 L34,15 C34,15.550781 34.445313,16 35,16 C35.554688,16 36,15.550781 36,15 L36,13 C36,12.449219 35.554688,12 35,12 Z M40,12 C39.445313,12 39,12.449219 39,13 L39,15 C39,15.550781 39.445313,16 40,16 C40.554688,16 41,15.550781 41,15 L41,13 C41,12.449219 40.554688,12 40,12 Z M45,12 C44.445313,12 44,12.449219 44,13 L44,15 C44,15.550781 44.445313,16 45,16 C45.554688,16 46,15.550781 46,15 L46,13 C46,12.449219 45.554688,12 45,12 Z M50,12 C49.445313,12 49,12.449219 49,13 L49,15 C49,15.550781 49.445313,16 50,16 C50.554688,16 51,15.550781 51,15 L51,13 C51,12.449219 50.554688,12 50,12 Z M55,12 C54.445313,12 54,12.449219 54,13 L54,15 C54,15.550781 54.445313,16 55,16 C55.554688,16 56,15.550781 56,15 L56,13 C56,12.449219 55.554688,12 55,12 Z M51,18 C50.445313,18 50,18.449219 50,19 C50,19.550781 50.445313,20 51,20 L55,20 C55.554688,20 56,19.550781 56,19 C56,18.449219 55.554688,18 55,18 L51,18 Z M34.84375,24.011719 C34.460938,24.070313 34.128906,24.355469 34.03125,24.757813 L28.03125,48.757813 C27.894531,49.292969 28.222656,49.835938 28.757813,49.96875 C28.839844,49.992188 28.921875,50 29,50 C29.449219,50 29.855469,49.699219 29.96875,49.246094 L35.96875,25.246094 C36.105469,24.707031 35.777344,24.164063 35.242188,24.03125 C35.109375,23.996094 34.972656,23.988281 34.84375,24.011719 Z M23,30 C22.746094,30 22.488281,30.097656 22.292969,30.292969 L16.292969,36.292969 C15.902344,36.683594 15.902344,37.316406 16.292969,37.707031 L22.292969,43.707031 C22.488281,43.902344 22.742188,44 23,44 C23.257813,44 23.511719,43.902344 23.707031,43.707031 C24.097656,43.316406 24.097656,42.683594 23.707031,42.292969 L18.414063,37 L23.707031,31.707031 C24.097656,31.316406 24.097656,30.683594 23.707031,30.292969 C23.511719,30.097656 23.253906,30 23,30 Z M41,30 C40.746094,30 40.488281,30.097656 40.292969,30.292969 C39.902344,30.683594 39.902344,31.316406 40.292969,31.707031 L45.585938,37 L40.292969,42.292969 C39.902344,42.683594 39.902344,43.316406 40.292969,43.707031 C40.488281,43.902344 40.742188,44 41,44 C41.257813,44 41.511719,43.902344 41.707031,43.707031 L47.707031,37.707031 C48.097656,37.316406 48.097656,36.683594 47.707031,36.292969 L41.707031,30.292969 C41.511719,30.097656 41.253906,30 41,30 Z" id="icon" fill="#20242E" fill-rule="nonzero"></path>
    </g>
</svg>