<?xml version="1.0" encoding="UTF-8"?>
<svg width="64px" height="64px" viewBox="0 0 64 64" version="1.1" xmlns="http://www.w3.org/2000/svg" xmlns:xlink="http://www.w3.org/1999/xlink">
    <!-- Generator: Sketch 51 (57462) - http://www.bohemiancoding.com/sketch -->
    <title>elements-icon-white</title>
    <desc>Created with Sketch.</desc>
    <defs></defs>
    <g id="elements-icon" stroke="none" stroke-width="1" fill="none" fill-rule="evenodd">
        <path d="M16,5 C12.703125,5 9.71875,6.335938 7.546875,8.492188 C7.535156,8.5 7.527344,8.503906 7.515625,8.515625 C7.503906,8.523438 7.5,8.535156 7.492188,8.546875 C5.335938,10.71875 4,13.703125 4,17 C4,23.617188 9.382813,29 16,29 C19.296875,29 22.28125,27.664063 24.453125,25.507813 C24.464844,25.5 24.472656,25.496094 24.484375,25.484375 C24.496094,25.476563 24.496094,25.464844 24.503906,25.453125 C26.664063,23.28125 28,20.296875 28,17 C28,10.382813 22.617188,5 16,5 Z M41,6 C39.347656,6 38,7.347656 38,9 L38,25 C38,26.652344 39.347656,28 41,28 L57,28 C58.652344,28 60,26.652344 60,25 L60,9 C60,7.347656 58.652344,6 57,6 L41,6 Z M16,7 C21.515625,7 26,11.484375 26,17 C26,17.03125 25.996094,17.0625 25.996094,17.09375 L15.90625,7.007813 C15.9375,7.007813 15.96875,7 16,7 Z M13.421875,7.351563 L25.652344,19.578125 C25.277344,20.96875 24.625,22.242188 23.738281,23.324219 L9.675781,9.261719 C10.757813,8.375 12.03125,7.722656 13.421875,7.351563 Z M41,8 L57,8 C57.550781,8 58,8.449219 58,9 L58,25 C58,25.550781 57.550781,26 57,26 L41,26 C40.449219,26 40,25.550781 40,25 L40,9 C40,8.449219 40.449219,8 41,8 Z M8.261719,10.675781 L22.324219,24.738281 C21.242188,25.625 19.96875,26.277344 18.578125,26.652344 L6.351563,14.421875 C6.722656,13.03125 7.375,11.757813 8.261719,10.675781 Z M6.007813,16.90625 L16.09375,26.996094 C16.0625,26.996094 16.03125,27 16,27 C10.484375,27 6,22.515625 6,17 C6,16.96875 6.007813,16.9375 6.007813,16.90625 Z M49,37.542969 C48.222656,37.542969 47.445313,37.828125 46.878906,38.394531 L38.390625,46.878906 C37.824219,47.445313 37.515625,48.199219 37.515625,49 C37.515625,49.804688 37.824219,50.554688 38.390625,51.121094 L46.878906,59.609375 C47.445313,60.175781 48.199219,60.484375 49,60.484375 C49.800781,60.484375 50.554688,60.175781 51.121094,59.609375 L59.605469,51.121094 C60.171875,50.554688 60.484375,49.804688 60.484375,49 C60.484375,48.199219 60.171875,47.445313 59.605469,46.878906 L51.121094,38.394531 C50.554688,37.828125 49.777344,37.542969 49,37.542969 Z M15,38 C14.277344,38 13.628906,38.371094 13.269531,38.996094 L4,55.027344 C3.640625,55.652344 3.640625,56.398438 4,57.027344 C4.363281,57.652344 5.011719,58.027344 5.734375,58.027344 L24.265625,58.027344 C24.992188,58.027344 25.636719,57.652344 26,57.027344 C26.359375,56.398438 26.359375,55.652344 26,55.027344 L16.730469,38.996094 C16.367188,38.371094 15.722656,38 15,38 Z M49,39.515625 C49.269531,39.515625 49.519531,39.621094 49.707031,39.808594 L58.191406,48.296875 C58.378906,48.484375 58.484375,48.734375 58.484375,49 C58.484375,49.269531 58.378906,49.519531 58.191406,49.707031 L49.703125,58.191406 C49.328125,58.570313 48.671875,58.570313 48.292969,58.191406 L39.808594,49.707031 C39.617188,49.519531 39.515625,49.269531 39.515625,49 C39.515625,48.730469 39.617188,48.480469 39.808594,48.292969 L48.292969,39.808594 C48.480469,39.621094 48.730469,39.515625 49,39.515625 Z M15,40 L24.265625,56.027344 L5.734375,56.027344 L15,40 Z M44,47 C43.449219,47 43,47.449219 43,48 L43,50 C43,50.550781 43.449219,51 44,51 C44.550781,51 45,50.550781 45,50 L45,48 C45,47.449219 44.550781,47 44,47 Z M49,47 C48.449219,47 48,47.449219 48,48 L48,50 C48,50.550781 48.449219,51 49,51 C49.550781,51 50,50.550781 50,50 L50,48 C50,47.449219 49.550781,47 49,47 Z M54,47 C53.449219,47 53,47.449219 53,48 L53,50 C53,50.550781 53.449219,51 54,51 C54.550781,51 55,50.550781 55,50 L55,48 C55,47.449219 54.550781,47 54,47 Z" id="icon" fill="#FFFFFF" fill-rule="nonzero"></path>
    </g>
</svg>