<?xml version="1.0" encoding="UTF-8"?>
<svg width="64px" height="64px" viewBox="0 0 64 64" version="1.1" xmlns="http://www.w3.org/2000/svg" xmlns:xlink="http://www.w3.org/1999/xlink">
    <!-- Generator: Sketch 51 (57462) - http://www.bohemiancoding.com/sketch -->
    <title>interactions-icon</title>
    <desc>Created with Sketch.</desc>
    <defs></defs>
    <g id="interactions-icon" stroke="none" stroke-width="1" fill="none" fill-rule="evenodd">
        <path d="M5,6 C3.347656,6 2,7.347656 2,9 L2,55 C2,56.652344 3.347656,58 5,58 L59,58 C60.652344,58 62,56.652344 62,55 L62,9 C62,7.347656 60.652344,6 59,6 L5,6 Z M5,8 L38,8 L38,56 L5,56 C4.449219,56 4,55.550781 4,55 L4,9 C4,8.449219 4.449219,8 5,8 Z M40,8 L59,8 C59.550781,8 60,8.449219 60,9 L60,55 C60,55.550781 59.550781,56 59,56 L40,56 L40,8 Z M43,11 C42.449219,11 42,11.449219 42,12 C42,12.550781 42.449219,13 43,13 L45,13 C45.550781,13 46,12.550781 46,12 C46,11.449219 45.550781,11 45,11 L43,11 Z M43,16 C42.449219,16 42,16.449219 42,17 C42,17.550781 42.449219,18 43,18 L45,18 C45.550781,18 46,17.550781 46,17 C46,16.449219 45.550781,16 45,16 L43,16 Z M43,21 C42.449219,21 42,21.449219 42,22 C42,22.550781 42.449219,23 43,23 L45,23 C45.550781,23 46,22.550781 46,22 C46,21.449219 45.550781,21 45,21 L43,21 Z M25,23 C24.746094,23 24.488281,23.097656 24.292969,23.292969 C23.902344,23.683594 23.902344,24.316406 24.292969,24.707031 L30.585938,31 L13,31 C12.449219,31 12,31.449219 12,32 C12,32.550781 12.449219,33 13,33 L30.585938,33 L24.292969,39.292969 C23.902344,39.683594 23.902344,40.316406 24.292969,40.707031 C24.488281,40.902344 24.742188,41 25,41 C25.257813,41 25.511719,40.902344 25.707031,40.707031 L33.707031,32.707031 C33.800781,32.613281 33.871094,32.503906 33.921875,32.382813 C34.023438,32.136719 34.023438,31.859375 33.921875,31.617188 C33.871094,31.496094 33.800781,31.386719 33.707031,31.292969 L25.707031,23.292969 C25.511719,23.097656 25.253906,23 25,23 Z M43,26 C42.449219,26 42,26.449219 42,27 C42,27.550781 42.449219,28 43,28 L45,28 C45.550781,28 46,27.550781 46,27 C46,26.449219 45.550781,26 45,26 L43,26 Z M43,31 C42.449219,31 42,31.449219 42,32 C42,32.550781 42.449219,33 43,33 L45,33 C45.550781,33 46,32.550781 46,32 C46,31.449219 45.550781,31 45,31 L43,31 Z M43,36 C42.449219,36 42,36.449219 42,37 C42,37.550781 42.449219,38 43,38 L45,38 C45.550781,38 46,37.550781 46,37 C46,36.449219 45.550781,36 45,36 L43,36 Z M43,41 C42.449219,41 42,41.449219 42,42 C42,42.550781 42.449219,43 43,43 L45,43 C45.550781,43 46,42.550781 46,42 C46,41.449219 45.550781,41 45,41 L43,41 Z M43,46 C42.449219,46 42,46.449219 42,47 C42,47.550781 42.449219,48 43,48 L45,48 C45.550781,48 46,47.550781 46,47 C46,46.449219 45.550781,46 45,46 L43,46 Z M43,51 C42.449219,51 42,51.449219 42,52 C42,52.550781 42.449219,53 43,53 L45,53 C45.550781,53 46,52.550781 46,52 C46,51.449219 45.550781,51 45,51 L43,51 Z" id="icon" fill="#20242E" fill-rule="nonzero"></path>
    </g>
</svg>