<?xml version="1.0" encoding="UTF-8"?>
<svg width="64px" height="64px" viewBox="0 0 64 64" version="1.1" xmlns="http://www.w3.org/2000/svg" xmlns:xlink="http://www.w3.org/1999/xlink">
    <!-- Generator: Sketch 51 (57462) - http://www.bohemiancoding.com/sketch -->
    <title>marketing-icon</title>
    <desc>Created with Sketch.</desc>
    <defs></defs>
    <g id="marketing-icon" stroke="none" stroke-width="1" fill="none" fill-rule="evenodd">
        <path d="M52.855469,3.738281 C52.324219,3.765625 51.796875,3.933594 51.335938,4.242188 L38.441406,12.839844 C37.265625,13.621094 35.902344,14.121094 34.5,14.285156 L8.179688,17.382813 C4.65625,17.796875 2,20.789063 2,24.335938 L2,33.664063 C2,37.214844 4.65625,40.203125 8.179688,40.613281 L9.183594,40.734375 L14.605469,57.902344 C15,59.15625 16.152344,60 17.46875,60 L20.75,60 C21.605469,60 22.425781,59.632813 22.992188,58.996094 C23.5625,58.355469 23.832031,57.5 23.730469,56.652344 L22.714844,48 L24.5625,48 C25.460938,48 26.308594,47.597656 26.878906,46.902344 C27.453125,46.203125 27.679688,45.296875 27.5,44.410156 L27.1875,42.851563 L34.5,43.714844 C35.902344,43.878906 37.265625,44.378906 38.441406,45.160156 L51.335938,53.761719 C51.839844,54.09375 52.417969,54.265625 53,54.265625 C53.484375,54.265625 53.972656,54.144531 54.417969,53.90625 C55.394531,53.382813 56,52.371094 56,51.265625 L56,34.71875 L59.949219,33.40625 C61.175781,32.996094 62,31.851563 62,30.558594 L62,27.441406 C62,26.148438 61.175781,25.003906 59.949219,24.59375 L56,23.28125 L56,6.734375 C56,5.628906 55.394531,4.613281 54.417969,4.09375 C53.925781,3.828125 53.386719,3.710938 52.855469,3.738281 Z M53.066406,5.734375 C53.246094,5.75 53.390625,5.8125 53.46875,5.855469 C53.628906,5.941406 54,6.195313 54,6.734375 L54,51.265625 C54,51.804688 53.632813,52.058594 53.472656,52.144531 C53.316406,52.230469 52.894531,52.394531 52.445313,52.09375 L39.550781,43.5 C38.113281,42.539063 36.445313,41.925781 34.734375,41.726563 L23.953125,40.457031 L23.957031,17.542969 L34.734375,16.273438 C36.449219,16.074219 38.113281,15.460938 39.550781,14.5 L47.957031,8.898438 L47.957031,37.207031 C47.957031,37.757813 48.402344,38.207031 48.957031,38.207031 C49.511719,38.207031 49.957031,37.757813 49.957031,37.207031 L49.957031,7.957031 C49.957031,7.832031 49.984375,7.546875 49.984375,7.546875 L52.445313,5.90625 C52.671875,5.753906 52.886719,5.71875 53.066406,5.734375 Z M21.957031,17.777344 L21.957031,40.207031 C21.957031,40.214844 21.960938,40.21875 21.960938,40.222656 L8.414063,38.628906 C5.898438,38.335938 4,36.199219 4,33.664063 L4,24.335938 C4,21.800781 5.898438,19.664063 8.414063,19.371094 L21.957031,17.777344 Z M26.957031,18.042969 C26.402344,18.042969 25.957031,18.492188 25.957031,19.042969 C25.957031,19.59375 26.402344,20.042969 26.957031,20.042969 L28.957031,20.042969 C29.511719,20.042969 29.957031,19.59375 29.957031,19.042969 C29.957031,18.492188 29.511719,18.042969 28.957031,18.042969 L26.957031,18.042969 Z M26.957031,23.042969 C26.402344,23.042969 25.957031,23.492188 25.957031,24.042969 C25.957031,24.59375 26.402344,25.042969 26.957031,25.042969 L28.957031,25.042969 C29.511719,25.042969 29.957031,24.59375 29.957031,24.042969 C29.957031,23.492188 29.511719,23.042969 28.957031,23.042969 L26.957031,23.042969 Z M56,25.390625 L59.316406,26.492188 C59.726563,26.628906 60,27.011719 60,27.441406 L60,30.558594 C60,30.988281 59.726563,31.371094 59.316406,31.507813 L56,32.613281 L56,25.390625 Z M26.957031,28.042969 C26.402344,28.042969 25.957031,28.492188 25.957031,29.042969 C25.957031,29.59375 26.402344,30.042969 26.957031,30.042969 L28.957031,30.042969 C29.511719,30.042969 29.957031,29.59375 29.957031,29.042969 C29.957031,28.492188 29.511719,28.042969 28.957031,28.042969 L26.957031,28.042969 Z M26.957031,33.042969 C26.402344,33.042969 25.957031,33.492188 25.957031,34.042969 C25.957031,34.59375 26.402344,35.042969 26.957031,35.042969 L28.957031,35.042969 C29.511719,35.042969 29.957031,34.59375 29.957031,34.042969 C29.957031,33.492188 29.511719,33.042969 28.957031,33.042969 L26.957031,33.042969 Z M26.957031,38.042969 C26.402344,38.042969 25.957031,38.492188 25.957031,39.042969 C25.957031,39.59375 26.402344,40.042969 26.957031,40.042969 L28.957031,40.042969 C29.511719,40.042969 29.957031,39.59375 29.957031,39.042969 C29.957031,38.492188 29.511719,38.042969 28.957031,38.042969 L26.957031,38.042969 Z M48.957031,39.957031 C48.402344,39.957031 47.957031,40.40625 47.957031,40.957031 L47.957031,45.207031 C47.957031,45.757813 48.402344,46.207031 48.957031,46.207031 C49.511719,46.207031 49.957031,45.757813 49.957031,45.207031 L49.957031,40.957031 C49.957031,40.40625 49.511719,39.957031 48.957031,39.957031 Z M11.359375,40.988281 L20.015625,42.011719 C20.015625,42.046875 20.003906,42.078125 20.007813,42.117188 L21.746094,56.882813 C21.777344,57.167969 21.691406,57.445313 21.5,57.664063 C21.304688,57.878906 21.039063,58 20.75,58 L17.46875,58 C17.027344,58 16.644531,57.71875 16.511719,57.300781 L11.359375,40.988281 Z M22.035156,42.246094 L25.101563,42.609375 L25.542969,44.804688 C25.601563,45.097656 25.523438,45.402344 25.332031,45.636719 C25.144531,45.867188 24.859375,46 24.5625,46 L22.480469,46 L22.035156,42.246094 Z" id="icon" fill="#20242E" fill-rule="nonzero"></path>
    </g>
</svg>