<?xml version="1.0" encoding="UTF-8"?>
<svg width="64px" height="64px" viewBox="0 0 64 64" version="1.1" xmlns="http://www.w3.org/2000/svg" xmlns:xlink="http://www.w3.org/1999/xlink">
    <!-- Generator: Sketch 51 (57462) - http://www.bohemiancoding.com/sketch -->
    <title>mask-icon-white</title>
    <desc>Created with Sketch.</desc>
    <defs></defs>
    <g id="mask-icon" stroke="none" stroke-width="1" fill="none" fill-rule="evenodd">
        <path d="M32,0.9375 C27.789063,0.9375 23.574219,1.859375 19.652344,3.703125 L18.800781,4.105469 C15.867188,5.484375 13.738281,8.207031 13.105469,11.382813 L11.210938,20.84375 C11.148438,21.148438 10.957031,21.40625 10.675781,21.542969 C9.644531,22.0625 9,23.101563 9,24.257813 L9,35.742188 C9,36.898438 9.640625,37.9375 10.746094,38.488281 C11.003906,38.617188 11.191406,38.851563 11.265625,39.128906 L14.910156,52.796875 C15.03125,53.25 15.257813,53.671875 15.566406,54.019531 L22.65625,61.992188 C23.222656,62.632813 24.042969,63 24.898438,63 L39.101563,63 C39.957031,63 40.777344,62.632813 41.34375,61.992188 L48.433594,54.019531 C48.742188,53.671875 48.96875,53.246094 49.089844,52.796875 L52.734375,39.128906 C52.808594,38.851563 52.996094,38.621094 53.324219,38.457031 C54.355469,37.9375 55,36.898438 55,35.742188 L55,24.257813 C55,23.101563 54.355469,22.0625 53.324219,21.542969 C53.042969,21.402344 52.851563,21.148438 52.789063,20.84375 L50.894531,11.386719 C50.261719,8.207031 48.132813,5.488281 45.199219,4.109375 L44.347656,3.703125 C40.421875,1.859375 36.210938,0.9375 32,0.9375 Z M32,2.9375 C35.921875,2.9375 39.84375,3.796875 43.496094,5.515625 L44.347656,5.917969 C46.710938,7.027344 48.425781,9.21875 48.9375,11.777344 L49.046875,12.324219 C48.148438,11.507813 47.140625,10.8125 46.046875,10.296875 C44.066406,9.363281 41.960938,8.621094 39.792969,8.09375 C39.242188,7.960938 38.65625,8.074219 38.1875,8.398438 C37.714844,8.734375 37.40625,9.253906 37.34375,9.828125 L36.203125,20.109375 C36.148438,20.617188 35.71875,21 35.207031,21 L28.789063,21 C28.277344,21 27.851563,20.617188 27.796875,20.109375 L26.65625,9.828125 C26.59375,9.253906 26.285156,8.730469 25.8125,8.398438 C25.34375,8.070313 24.757813,7.960938 24.207031,8.09375 C22.042969,8.617188 19.933594,9.359375 17.941406,10.296875 C16.847656,10.8125 15.851563,11.511719 14.953125,12.324219 L15.0625,11.777344 C15.578125,9.214844 17.289063,7.027344 19.652344,5.914063 L20.503906,5.515625 C24.15625,3.796875 28.078125,2.9375 32,2.9375 Z M31,6 C30.449219,6 30,6.449219 30,7 C30,7.550781 30.449219,8 31,8 L33,8 C33.550781,8 34,7.550781 34,7 C34,6.449219 33.550781,6 33,6 L31,6 Z M39.320313,10.035156 C41.359375,10.53125 43.335938,11.226563 45.191406,12.105469 C46.578125,12.757813 47.824219,13.738281 48.796875,14.9375 L46.582031,28.566406 C46.542969,28.792969 46.378906,28.976563 46.160156,29.035156 C36.894531,31.601563 27.101563,31.601563 17.839844,29.035156 C17.621094,28.972656 17.457031,28.792969 17.421875,28.578125 L15.207031,14.953125 C16.179688,13.75 17.40625,12.761719 18.796875,12.105469 C20.664063,11.226563 22.644531,10.53125 24.671875,10.046875 L25.808594,20.328125 C25.976563,21.851563 27.257813,23 28.792969,23 L35.210938,23 C36.742188,23 38.023438,21.851563 38.191406,20.328125 L39.320313,10.035156 Z M31,11 C30.449219,11 30,11.449219 30,12 C30,12.550781 30.449219,13 31,13 L33,13 C33.550781,13 34,12.550781 34,12 C34,11.449219 33.550781,11 33,11 L31,11 Z M31,16 C30.449219,16 30,16.449219 30,17 C30,17.550781 30.449219,18 31,18 L33,18 C33.550781,18 34,17.550781 34,17 C34,16.449219 33.550781,16 33,16 L31,16 Z M13.738281,18.402344 L15.445313,28.910156 C15.46875,29.054688 15.53125,29.183594 15.578125,29.320313 C15.539063,29.363281 15.488281,29.394531 15.453125,29.445313 L14.503906,30.871094 C13.621094,32.195313 13.925781,33.980469 15.199219,34.9375 L16.621094,36 C17.480469,36.644531 18.542969,37 19.621094,37 L25.050781,37 C26.195313,37 27.222656,36.363281 27.734375,35.34375 L28.96875,32.871094 C29.980469,32.925781 30.988281,32.964844 32,32.964844 C32.777344,32.964844 33.558594,32.9375 34.335938,32.90625 L35.550781,35.34375 C36.0625,36.363281 37.09375,37 38.234375,37 L43.667969,37 C44.742188,37 45.808594,36.644531 46.667969,36 L48.085938,34.9375 C49.359375,33.980469 49.664063,32.195313 48.78125,30.871094 L48.128906,29.894531 C48.332031,29.59375 48.492188,29.269531 48.554688,28.902344 L50.261719,18.402344 L50.828125,21.234375 C51.007813,22.152344 51.59375,22.914063 52.425781,23.332031 C52.78125,23.507813 53,23.863281 53,24.257813 L53,35.742188 C53,36.136719 52.78125,36.492188 52.359375,36.703125 C52.179688,36.792969 51.417969,37.152344 51.253906,37.335938 L44.265625,45.199219 C43.449219,46.113281 43,47.296875 43,48.519531 L43,51.171875 C43,51.4375 42.894531,51.691406 42.707031,51.878906 L42.109375,52.480469 L40.402344,50.199219 C39.835938,49.449219 38.9375,49 38,49 L26,49 C25.0625,49 24.164063,49.445313 23.597656,50.199219 L21.890625,52.480469 L21.292969,51.878906 C21.105469,51.691406 21,51.4375 21,51.171875 L21,48.519531 C21,47.296875 20.550781,46.113281 19.734375,45.199219 L12.746094,37.335938 C12.582031,37.148438 11.773438,36.769531 11.574219,36.671875 C11.21875,36.492188 11,36.136719 11,35.742188 L11,24.257813 C11,23.863281 11.21875,23.507813 11.574219,23.332031 C12.40625,22.914063 12.988281,22.152344 13.171875,21.234375 L13.738281,18.402344 Z M16.949219,30.808594 C17.066406,30.863281 17.179688,30.929688 17.308594,30.964844 C20.429688,31.832031 23.613281,32.410156 26.8125,32.714844 L25.945313,34.449219 C25.773438,34.789063 25.433594,35 25.050781,35 L19.621094,35 C18.972656,35 18.335938,34.789063 17.820313,34.402344 L16.402344,33.335938 C15.976563,33.019531 15.871094,32.421875 16.167969,31.980469 L16.949219,30.808594 Z M46.476563,31.019531 L47.117188,31.980469 C47.414063,32.421875 47.3125,33.019531 46.886719,33.335938 L45.46875,34.402344 C44.949219,34.789063 44.3125,35 43.667969,35 L38.234375,35 C37.851563,35 37.511719,34.789063 37.34375,34.449219 L36.5,32.769531 C39.859375,32.492188 43.199219,31.914063 46.476563,31.019531 Z M14.050781,41.8125 L18.242188,46.527344 C18.730469,47.078125 19,47.785156 19,48.519531 L19,51.171875 C19,51.972656 19.3125,52.726563 19.878906,53.292969 L20.480469,53.890625 C20.886719,54.300781 21.457031,54.515625 22.03125,54.472656 C22.613281,54.433594 23.144531,54.140625 23.492188,53.675781 L25.199219,51.402344 C25.386719,51.148438 25.6875,51 26,51 L38,51 C38.3125,51 38.613281,51.148438 38.800781,51.402344 L40.507813,53.675781 C40.855469,54.140625 41.386719,54.433594 41.96875,54.472656 C42.015625,54.476563 42.058594,54.480469 42.109375,54.480469 C42.636719,54.480469 43.144531,54.269531 43.519531,53.890625 L44.121094,53.292969 C44.6875,52.726563 45,51.972656 45,51.171875 L45,48.519531 C45,47.785156 45.269531,47.078125 45.757813,46.527344 L49.949219,41.8125 L47.15625,52.285156 C47.117188,52.433594 47.042969,52.574219 46.9375,52.691406 L39.847656,60.664063 C39.660156,60.878906 39.386719,61 39.101563,61 L24.898438,61 C24.613281,61 24.339844,60.878906 24.152344,60.664063 L17.0625,52.6875 C16.957031,52.574219 16.882813,52.433594 16.84375,52.28125 L14.050781,41.8125 Z M27,55 C26.449219,55 26,55.449219 26,56 L26,58 C26,58.550781 26.449219,59 27,59 C27.550781,59 28,58.550781 28,58 L28,56 C28,55.449219 27.550781,55 27,55 Z M32,55 C31.449219,55 31,55.449219 31,56 L31,58 C31,58.550781 31.449219,59 32,59 C32.550781,59 33,58.550781 33,58 L33,56 C33,55.449219 32.550781,55 32,55 Z M37,55 C36.449219,55 36,55.449219 36,56 L36,58 C36,58.550781 36.449219,59 37,59 C37.550781,59 38,58.550781 38,58 L38,56 C38,55.449219 37.550781,55 37,55 Z" id="icon" fill="#FFFFFF" fill-rule="nonzero"></path>
    </g>
</svg>