<?xml version="1.0" encoding="UTF-8"?>
<svg width="64px" height="64px" viewBox="0 0 64 64" version="1.1" xmlns="http://www.w3.org/2000/svg" xmlns:xlink="http://www.w3.org/1999/xlink">
    <!-- Generator: Sketch 51 (57462) - http://www.bohemiancoding.com/sketch -->
    <title>responsive-icon</title>
    <desc>Created with Sketch.</desc>
    <defs></defs>
    <g id="responsive-icon" stroke="none" stroke-width="1" fill="none" fill-rule="evenodd">
        <path d="M9,7 C7.351563,7 6,8.351563 6,10 L6,17 L5,17 C2.238281,17 0,19.238281 0,22 L0,52 C0,54.761719 2.238281,57 5,57 L17,57 C19.761719,57 22,54.761719 22,52 L22,47 L29.65625,47 L27.253906,55 L25,55 C24.445313,55 24,55.449219 24,56 C24,56.550781 24.445313,57 25,57 L47,57 C47.554688,57 48,56.550781 48,56 C48,55.449219 47.554688,55 47,55 L44.746094,55 L42.34375,47 L61,47 C62.648438,47 64,45.648438 64,44 L64,10 C64,8.351563 62.648438,7 61,7 L9,7 Z M9,9 L61,9 C61.550781,9 62,9.449219 62,10 L62,11 L8,11 L8,10 C8,9.449219 8.449219,9 9,9 Z M8,13 L62,13 L62,25 C61.445313,25 61,25.449219 61,26 L61,28 C61,28.550781 61.445313,29 62,29 L62,39 L41.082031,39 C40.527344,39 40.082031,39.449219 40.082031,40 C40.082031,40.550781 40.527344,41 41.082031,41 L62,41 L62,44 C62,44.550781 61.550781,45 61,45 L22,45 L22,41 L31.078125,41 C31.640625,41 32.078125,40.550781 32.078125,40 C32.078125,39.449219 31.640625,39 31.078125,39 L22,39 L22,29 C22.554688,29 23,28.550781 23,28 L23,26 C23,25.449219 22.554688,25 22,25 L22,22 C22,19.238281 19.761719,17 17,17 L8,17 L8,13 Z M5,19 L17,19 C18.648438,19 20,20.351563 20,22 L20,23 L2,23 L2,22 C2,20.351563 3.351563,19 5,19 Z M10,20 C9.445313,20 9,20.449219 9,21 C9,21.550781 9.445313,22 10,22 L11,22 C11.554688,22 12,21.550781 12,21 C12,20.449219 11.554688,20 11,20 L10,20 Z M2,25 L20,25 L20,47 L2,47 L2,25 Z M27,25 C26.445313,25 26,25.449219 26,26 L26,28 C26,28.550781 26.445313,29 27,29 C27.554688,29 28,28.550781 28,28 L28,26 C28,25.449219 27.554688,25 27,25 Z M32,25 C31.445313,25 31,25.449219 31,26 L31,28 C31,28.550781 31.445313,29 32,29 C32.554688,29 33,28.550781 33,28 L33,26 C33,25.449219 32.554688,25 32,25 Z M37,25 C36.445313,25 36,25.449219 36,26 L36,28 C36,28.550781 36.445313,29 37,29 C37.554688,29 38,28.550781 38,28 L38,26 C38,25.449219 37.554688,25 37,25 Z M42,25 C41.445313,25 41,25.449219 41,26 L41,28 C41,28.550781 41.445313,29 42,29 C42.554688,29 43,28.550781 43,28 L43,26 C43,25.449219 42.554688,25 42,25 Z M47,25 C46.445313,25 46,25.449219 46,26 L46,28 C46,28.550781 46.445313,29 47,29 C47.554688,29 48,28.550781 48,28 L48,26 C48,25.449219 47.554688,25 47,25 Z M52,25 C51.445313,25 51,25.449219 51,26 L51,28 C51,28.550781 51.445313,29 52,29 C52.554688,29 53,28.550781 53,28 L53,26 C53,25.449219 52.554688,25 52,25 Z M57,25 C56.445313,25 56,25.449219 56,26 L56,28 C56,28.550781 56.445313,29 57,29 C57.554688,29 58,28.550781 58,28 L58,26 C58,25.449219 57.554688,25 57,25 Z M35.082031,39 C34.527344,39 34.082031,39.449219 34.082031,40 C34.082031,40.550781 34.527344,41 35.082031,41 L37,41 C37.554688,41 38,40.550781 38,40 C38,39.449219 37.554688,39 37,39 L35.082031,39 Z M31.746094,47 L40.253906,47 L42.65625,55 L29.34375,55 L31.746094,47 Z M2,49 L20,49 L20,52 C20,53.648438 18.648438,55 17,55 L5,55 C3.351563,55 2,53.648438 2,52 L2,49 Z M11,50 C9.894531,50 9,50.894531 9,52 C9,53.105469 9.894531,54 11,54 C12.105469,54 13,53.105469 13,52 C13,50.894531 12.105469,50 11,50 Z" id="icon" fill="#20242E" fill-rule="nonzero"></path>
    </g>
</svg>