<?xml version="1.0" encoding="UTF-8"?>
<svg width="64px" height="64px" viewBox="0 0 64 64" version="1.1" xmlns="http://www.w3.org/2000/svg" xmlns:xlink="http://www.w3.org/1999/xlink">
    <!-- Generator: Sketch 51 (57462) - http://www.bohemiancoding.com/sketch -->
    <title>support-icon</title>
    <desc>Created with Sketch.</desc>
    <defs></defs>
    <g id="support-icon" stroke="none" stroke-width="1" fill="none" fill-rule="evenodd">
        <path d="M13,6 C11.347656,6 10,7.347656 10,9 L10,24 L5,24 C3.347656,24 2,25.347656 2,27 L2,49 C2,50.652344 3.347656,52 5,52 L10.214844,52 C10.3125,52.839844 10.269531,54.636719 9.070313,57.628906 C8.9375,57.960938 8.992188,58.335938 9.214844,58.617188 C9.40625,58.859375 9.695313,59 10,59 C10.046875,59 10.09375,58.996094 10.140625,58.988281 C16.136719,58.132813 18.164063,53.839844 18.765625,52 L31,52 C32.652344,52 34,50.652344 34,49 L34,44 L41.34375,44 C42.183594,45.738281 45.058594,50.261719 52.78125,51.976563 C52.855469,51.992188 52.929688,52 53,52 C53.316406,52 53.621094,51.847656 53.8125,51.582031 C54.046875,51.261719 54.0625,50.828125 53.859375,50.484375 C51.964844,47.332031 51.792969,45.066406 51.855469,44 L59,44 C60.652344,44 62,42.652344 62,41 L62,9 C62,7.347656 60.652344,6 59,6 L13,6 Z M13,8 L59,8 C59.550781,8 60,8.449219 60,9 L60,41 C60,41.550781 59.550781,42 59,42 L51,42 C50.570313,42 50.1875,42.273438 50.050781,42.683594 C50.011719,42.804688 49.21875,45.316406 51.046875,49.421875 C44.59375,47.238281 43.015625,42.882813 42.949219,42.683594 C42.8125,42.273438 42.429688,42 42,42 L34,42 L34,27 C34,25.898438 33.394531,24.941406 32.507813,24.421875 L36,15.691406 L40.921875,28 L37,28 C36.445313,28 36,28.449219 36,29 C36,29.550781 36.445313,30 37,30 L41.722656,30 L43.074219,33.371094 C43.226563,33.761719 43.605469,34 44,34 C44.125,34 44.25,33.976563 44.371094,33.925781 C44.882813,33.722656 45.132813,33.140625 44.929688,32.628906 L36.929688,12.628906 C36.777344,12.25 36.410156,12 36,12 C35.589844,12 35.222656,12.25 35.070313,12.628906 L30.519531,24 L12,24 L12,9 C12,8.449219 12.449219,8 13,8 Z M5,26 L31,26 C31.550781,26 32,26.449219 32,27 L32,49 C32,49.550781 31.550781,50 31,50 L18,50 C17.515625,50 17.101563,50.351563 17.015625,50.832031 C16.980469,51.027344 16.199219,55.164063 11.550781,56.628906 C12.808594,52.589844 12.003906,50.769531 11.894531,50.550781 C11.722656,50.214844 11.378906,50 11,50 L5,50 C4.449219,50 4,49.550781 4,49 L4,27 C4,26.449219 4.449219,26 5,26 Z M17,30 C14.242188,30 12,32.242188 12,35 L12,41 C12,43.757813 14.242188,46 17,46 L19,46 C19.5,46 19.972656,45.90625 20.429688,45.765625 L21.070313,47.371094 C21.226563,47.761719 21.605469,48 22,48 C22.125,48 22.25,47.976563 22.371094,47.925781 C22.882813,47.722656 23.132813,47.140625 22.929688,46.628906 L22.203125,44.808594 C23.292969,43.890625 24,42.53125 24,41 L24,35 C24,32.242188 21.757813,30 19,30 L17,30 Z M17,32 L19,32 C20.652344,32 22,33.347656 22,35 L22,41 C22,41.671875 21.769531,42.289063 21.390625,42.789063 L20.925781,41.628906 C20.722656,41.117188 20.136719,40.867188 19.628906,41.074219 C19.117188,41.277344 18.867188,41.859375 19.070313,42.371094 L19.6875,43.910156 C19.464844,43.964844 19.238281,44 19,44 L17,44 C15.347656,44 14,42.652344 14,41 L14,35 C14,33.347656 15.347656,32 17,32 Z M37,36 C36.445313,36 36,36.449219 36,37 L36,39 C36,39.550781 36.445313,40 37,40 C37.554688,40 38,39.550781 38,39 L38,37 C38,36.449219 37.554688,36 37,36 Z M42,36 C41.445313,36 41,36.449219 41,37 L41,39 C41,39.550781 41.445313,40 42,40 C42.554688,40 43,39.550781 43,39 L43,37 C43,36.449219 42.554688,36 42,36 Z M47,36 C46.445313,36 46,36.449219 46,37 L46,39 C46,39.550781 46.445313,40 47,40 C47.554688,40 48,39.550781 48,39 L48,37 C48,36.449219 47.554688,36 47,36 Z M52,36 C51.445313,36 51,36.449219 51,37 L51,39 C51,39.550781 51.445313,40 52,40 C52.554688,40 53,39.550781 53,39 L53,37 C53,36.449219 52.554688,36 52,36 Z M57,36 C56.445313,36 56,36.449219 56,37 L56,39 C56,39.550781 56.445313,40 57,40 C57.554688,40 58,39.550781 58,39 L58,37 C58,36.449219 57.554688,36 57,36 Z" id="icon" fill="#20242E" fill-rule="nonzero"></path>
    </g>
</svg>