<?xml version="1.0" encoding="UTF-8"?>
<svg width="64px" height="64px" viewBox="0 0 64 64" version="1.1" xmlns="http://www.w3.org/2000/svg" xmlns:xlink="http://www.w3.org/1999/xlink">
    <!-- Generator: Sketch 51 (57462) - http://www.bohemiancoding.com/sketch -->
    <title>swatches-icon</title>
    <desc>Created with Sketch.</desc>
    <defs></defs>
    <g id="swatches-icon" stroke="none" stroke-width="1" fill="none" fill-rule="evenodd">
        <path d="M32.5920331,2.00195886 C32.0920331,2.00586586 31.5920331,2.02930286 31.0881271,2.06055286 C24.3185961,2.46680286 18.1584391,5.14649086 13.3381271,9.33789686 C7.44750208,14.4394589 3.56859608,21.8066469 3.06078308,30.0878969 C2.53734608,38.4668029 5.40843908,46.4472719 11.1389081,52.5371159 C16.7873461,58.5488339 24.7482831,61.9980529 32.9982831,61.9980529 C35.3771891,61.9980529 37.7365641,61.7168029 40.0295331,61.1699279 C43.8967211,60.2363339 46.8576581,57.3886779 47.9475021,53.5293029 C49.0490641,49.6191469 47.9982831,45.5800839 45.1271891,42.7168029 L43.9475021,41.5371159 C42.2092211,39.7871159 42.2482831,37.5761779 42.8693771,36.0878969 C43.4787521,34.5878969 45.0178141,32.9980529 47.4865641,32.9980529 L55.1975021,32.9980529 C57.3967211,32.9980529 59.4279711,31.9980529 60.7678141,30.2480529 C61.7170331,29.0097719 62.2092211,27.5293029 62.2092211,26.0097719 C62.2092211,25.3964909 62.1271891,24.7871159 61.9670331,24.1777409 C60.3771891,18.2558659 57.0373461,13.1660219 52.6271891,9.36524086 C47.1818771,4.66211586 40.0998461,1.91602186 32.5920331,2.00195886 Z M32.9475021,3.99805286 C39.2365641,3.99805286 45.1779711,6.11914686 49.9787521,9.75586586 C50.4006271,10.0761779 50.8068771,10.4082089 51.1975021,10.7597719 C55.3771891,14.3183659 58.5373461,19.1074279 60.0373461,24.6972719 C60.4475021,26.2089909 60.1271891,27.7871159 59.1779711,29.0371159 C58.2170331,30.2753969 56.7678141,30.9980529 55.1975021,30.9980529 L47.4865641,30.9980529 C44.5998461,30.9980529 42.1193771,32.6582089 41.0178141,35.3183659 C39.9084391,37.9902409 40.4982831,40.9082089 42.5373461,42.9472719 L43.7170331,44.1269589 C46.0607831,46.4785219 46.9162521,49.7871159 46.0178141,52.9863339 C45.1271891,56.1386779 42.7170331,58.4668029 39.5607831,59.2285219 C37.4279711,59.7402409 35.2170331,59.9980529 32.9982831,59.9980529 C25.1896891,59.9980529 17.9396891,56.8574279 12.5881271,51.1699279 C7.24828308,45.4785219 4.56859608,38.0371159 5.06078308,30.2089909 C5.53734608,22.4277409 9.19750208,15.5175839 14.7678141,10.7480529 C19.2365641,6.89649086 24.9475021,4.44727186 31.2092211,4.06055286 C31.7873461,4.01758386 32.3693771,3.99805286 32.9475021,3.99805286 Z M32.9982831,6.99805286 C30.2404711,6.99805286 27.9982831,9.24024086 27.9982831,11.9980529 C27.9982831,14.7558659 30.2404711,16.9980529 32.9982831,16.9980529 C35.7560961,16.9980529 37.9982831,14.7558659 37.9982831,11.9980529 C37.9982831,9.24024086 35.7560961,6.99805286 32.9982831,6.99805286 Z M32.9982831,8.99805286 C34.6506271,8.99805286 35.9982831,10.3457089 35.9982831,11.9980529 C35.9982831,13.6503969 34.6506271,14.9980529 32.9982831,14.9980529 C31.3459391,14.9980529 29.9982831,13.6503969 29.9982831,11.9980529 C29.9982831,10.3457089 31.3459391,8.99805286 32.9982831,8.99805286 Z M19.9982831,11.9980529 C17.2404711,11.9980529 14.9982831,14.2402409 14.9982831,16.9980529 C14.9982831,19.7558659 17.2404711,21.9980529 19.9982831,21.9980529 C22.7560961,21.9980529 24.9982831,19.7558659 24.9982831,16.9980529 C24.9982831,14.2402409 22.7560961,11.9980529 19.9982831,11.9980529 Z M45.9982831,11.9980529 C43.2404711,11.9980529 40.9982831,14.2402409 40.9982831,16.9980529 C40.9982831,19.7558659 43.2404711,21.9980529 45.9982831,21.9980529 C48.7560961,21.9980529 50.9982831,19.7558659 50.9982831,16.9980529 C50.9982831,14.2402409 48.7560961,11.9980529 45.9982831,11.9980529 Z M19.9982831,13.9980529 C21.6506271,13.9980529 22.9982831,15.3457089 22.9982831,16.9980529 C22.9982831,18.6503969 21.6506271,19.9980529 19.9982831,19.9980529 C18.3459391,19.9980529 16.9982831,18.6503969 16.9982831,16.9980529 C16.9982831,15.3457089 18.3459391,13.9980529 19.9982831,13.9980529 Z M45.9982831,13.9980529 C47.6506271,13.9980529 48.9982831,15.3457089 48.9982831,16.9980529 C48.9982831,18.6503969 47.6506271,19.9980529 45.9982831,19.9980529 C44.3459391,19.9980529 42.9982831,18.6503969 42.9982831,16.9980529 C42.9982831,15.3457089 44.3459391,13.9980529 45.9982831,13.9980529 Z M32.9982831,20.9980529 C32.4943771,20.9980529 31.9904711,21.0332089 31.4982831,21.0996159 C30.9514081,21.1738339 30.5685961,21.6816469 30.6428141,22.2285219 C30.7209391,22.7714909 31.2209391,23.1543029 31.7717211,23.0800839 C34.0100021,22.7753969 36.3420331,23.3339909 38.2014081,24.6543029 C38.3810961,24.7793029 38.5803141,24.8418029 38.7795331,24.8418029 C39.0959391,24.8418029 39.4045331,24.6933659 39.5959391,24.4199279 C39.9162521,23.9668029 39.8107831,23.3418029 39.3615641,23.0253969 C37.4943771,21.6972719 35.2951581,20.9980529 32.9982831,20.9980529 Z M26.8928141,22.3339909 C26.7600021,22.3496159 26.6271891,22.3964909 26.4982831,22.4707089 C25.9787521,22.7714909 25.8576581,23.3574279 26.1350021,23.8378969 L27.1350021,25.5683659 C27.3185961,25.8925839 27.6545331,26.0722719 27.9982831,26.0722719 C28.1310961,26.0918029 28.3264081,26.0371159 28.4982831,25.9355529 C29.0178141,25.6347719 29.1389081,25.0488339 28.8615641,24.5683659 L27.8615641,22.8378969 C27.6584391,22.4785219 27.2873461,22.2832089 26.8928141,22.3339909 Z M12.9982831,24.9980529 C10.2404711,24.9980529 7.99828308,27.2402409 7.99828308,29.9980529 C7.99828308,32.7558659 10.2404711,34.9980529 12.9982831,34.9980529 C15.7560961,34.9980529 17.9982831,32.7558659 17.9982831,29.9980529 C17.9982831,27.2402409 15.7560961,24.9980529 12.9982831,24.9980529 Z M41.3810961,25.7910219 C41.2521891,25.8066469 41.1271891,25.8535219 41.0100021,25.9277409 C40.5373461,26.2168029 40.3889081,26.8300839 40.6779711,27.3027409 C41.0100021,27.8457089 41.2834391,28.4238339 41.4943771,29.0175839 C41.6389081,29.4316469 42.0256271,29.6894589 42.4357831,29.6894589 C42.5451581,29.6894589 42.6584391,29.6699279 42.7678141,29.6347719 C43.2873461,29.4511779 43.5646891,28.8808659 43.3810961,28.3574279 C43.1271891,27.6269589 42.7873461,26.9199279 42.3850021,26.2597719 C42.1662521,25.9043029 41.7678141,25.7324279 41.3810961,25.7910219 Z M23.4670331,25.9980529 C23.0842211,25.9433659 22.6975021,26.1074279 22.4709391,26.4980529 C22.1701581,27.0175839 22.3576581,27.5878969 22.8381271,27.8613339 L24.5685961,28.8613339 C24.7287521,28.9550839 24.8732831,29.0410219 25.0529711,29.0293029 C25.4123461,29.0058659 25.7365641,28.8457089 25.9357831,28.4980529 C26.2365641,27.9785219 26.0490641,27.4082089 25.5685961,27.1347719 L23.8381271,26.1347719 C23.7170331,26.0644589 23.5920331,26.0175839 23.4670331,25.9980529 Z M12.9982831,26.9980529 C14.6506271,26.9980529 15.9982831,28.3457089 15.9982831,29.9980529 C15.9982831,31.6503969 14.6506271,32.9980529 12.9982831,32.9980529 C11.3459391,32.9980529 9.99828308,31.6503969 9.99828308,29.9980529 C9.99828308,28.3457089 11.3459391,26.9980529 12.9982831,26.9980529 Z M21.9982831,30.9980529 C21.4435961,30.9980529 20.9982831,31.3964909 20.9982831,31.9980529 C20.9982831,32.5996159 21.4435961,32.9980529 21.9982831,32.9980529 L23.9982831,32.9980529 C24.5529711,32.9980529 24.9982831,32.5996159 24.9982831,31.9980529 C24.9982831,31.3964909 24.5529711,30.9980529 23.9982831,30.9980529 L21.9982831,30.9980529 Z M24.9435961,34.9980529 C24.8146891,35.0175839 24.6896891,35.0644589 24.5725021,35.1347719 L22.8381271,36.1347719 C22.3576581,36.4082089 22.1740641,36.9785219 22.4709391,37.4980529 C22.6740641,37.8457089 22.9943771,38.0058659 23.3576581,38.0293029 C23.5334391,38.0410219 23.6779711,37.9550839 23.8381271,37.8613339 L25.5725021,36.8613339 C26.0490641,36.5878969 26.2365641,36.0175839 25.9357831,35.4980529 C25.7092211,35.1074279 25.3264081,34.9433659 24.9435961,34.9980529 Z M28.1037521,37.9238339 C27.7092211,37.8730529 27.3381271,38.0683659 27.1350021,38.4238339 L26.1350021,40.1582089 C25.8576581,40.6386779 25.9787521,41.2246159 26.4982831,41.5253969 C26.6701581,41.6230529 26.8654711,41.6816469 26.9982831,41.6582089 C27.3420331,41.6582089 27.6779711,41.4785219 27.8615641,41.1582089 L28.8615641,39.4238339 C29.1389081,38.9472719 29.0178141,38.3613339 28.4982831,38.0605529 C28.3693771,37.9863339 28.2365641,37.9394589 28.1037521,37.9238339 Z M16.9982831,38.9980529 C14.2404711,38.9980529 11.9982831,41.2402409 11.9982831,43.9980529 C11.9982831,46.7558659 14.2404711,48.9980529 16.9982831,48.9980529 C19.7560961,48.9980529 21.9982831,46.7558659 21.9982831,43.9980529 C21.9982831,41.2402409 19.7560961,38.9980529 16.9982831,38.9980529 Z M16.9982831,40.9980529 C18.6506271,40.9980529 19.9982831,42.3457089 19.9982831,43.9980529 C19.9982831,45.6503969 18.6506271,46.9980529 16.9982831,46.9980529 C15.3459391,46.9980529 13.9982831,45.6503969 13.9982831,43.9980529 C13.9982831,42.3457089 15.3459391,40.9980529 16.9982831,40.9980529 Z M34.9982831,43.9980529 C31.6896891,43.9980529 28.9982831,46.6894589 28.9982831,49.9980529 C28.9982831,53.3066469 31.6896891,55.9980529 34.9982831,55.9980529 C38.3068771,55.9980529 40.9982831,53.3066469 40.9982831,49.9980529 C40.9982831,46.6894589 38.3068771,43.9980529 34.9982831,43.9980529 Z M34.9982831,45.9980529 C37.2053141,45.9980529 38.9982831,47.7910219 38.9982831,49.9980529 C38.9982831,52.2050839 37.2053141,53.9980529 34.9982831,53.9980529 C32.7912521,53.9980529 30.9982831,52.2050839 30.9982831,49.9980529 C30.9982831,47.7910219 32.7912521,45.9980529 34.9982831,45.9980529 Z" id="icon" fill="#20242E" fill-rule="nonzero"></path>
    </g>
</svg>