<?xml version="1.0" encoding="UTF-8"?>
<svg width="64px" height="64px" viewBox="0 0 64 64" version="1.1" xmlns="http://www.w3.org/2000/svg" xmlns:xlink="http://www.w3.org/1999/xlink">
    <!-- Generator: Sketch 51 (57462) - http://www.bohemiancoding.com/sketch -->
    <title>time-icon-white</title>
    <desc>Created with Sketch.</desc>
    <defs></defs>
    <g id="time-icon" stroke="none" stroke-width="1" fill="none" fill-rule="evenodd">
        <path d="M32,3 C16.011719,3 3,16.007813 3,32 C3,47.992188 16.011719,61 32,61 C47.988281,61 61,47.992188 61,32 C61,16.007813 47.988281,3 32,3 Z M32,5 C46.886719,5 59,17.113281 59,32 C59,46.886719 46.886719,59 32,59 C17.113281,59 5,46.886719 5,32 C5,17.113281 17.113281,5 32,5 Z M32,12 C25.703125,12 19.75,15.03125 16,20.015625 L16,15.917969 C16,15.367188 15.554688,14.917969 15,14.917969 C14.445313,14.917969 14,15.367188 14,15.917969 L14,23 C14,23.550781 14.445313,24 15,24 L22,24 C22.554688,24 23,23.550781 23,23 C23,22.449219 22.554688,22 22,22 L17.039063,22 C20.363281,17.046875 26.011719,14 32,14 C41.925781,14 50,22.074219 50,32 C50,41.925781 41.925781,50 32,50 C26.976563,50 22.3125,47.980469 18.875,44.316406 C18.492188,43.914063 17.863281,43.894531 17.457031,44.269531 C17.058594,44.648438 17.035156,45.28125 17.414063,45.6875 C21.183594,49.699219 26.496094,52 32,52 C43.027344,52 52,43.027344 52,32 C52,20.972656 43.027344,12 32,12 Z M32,17 C31.445313,17 31,17.449219 31,18 L31,20 C31,20.550781 31.445313,21 32,21 C32.554688,21 33,20.550781 33,20 L33,18 C33,17.449219 32.554688,17 32,17 Z M42,21 C41.746094,21 41.488281,21.097656 41.292969,21.292969 L32.511719,30.074219 C32.347656,30.03125 32.179688,30 32,30 C30.898438,30 30,30.898438 30,32 C30,33.101563 30.898438,34 32,34 C32.179688,34 32.347656,33.96875 32.511719,33.925781 L36.792969,38.207031 C36.988281,38.402344 37.242188,38.5 37.5,38.5 C37.757813,38.5 38.011719,38.402344 38.207031,38.207031 C38.597656,37.816406 38.597656,37.183594 38.207031,36.792969 L33.925781,32.511719 C33.96875,32.347656 34,32.179688 34,32 C34,31.820313 33.96875,31.652344 33.925781,31.488281 L42.707031,22.707031 C43.097656,22.316406 43.097656,21.683594 42.707031,21.292969 C42.511719,21.097656 42.253906,21 42,21 Z M44.996094,25.753906 C44.867188,25.753906 44.734375,25.777344 44.605469,25.828125 L42.75,26.578125 C42.238281,26.785156 41.992188,27.367188 42.199219,27.878906 C42.355469,28.269531 42.730469,28.503906 43.125,28.503906 C43.25,28.503906 43.378906,28.484375 43.5,28.433594 L45.355469,27.683594 C45.867188,27.476563 46.113281,26.894531 45.90625,26.378906 C45.75,25.996094 45.386719,25.761719 44.996094,25.753906 Z M18,31 C17.445313,31 17,31.449219 17,32 C17,32.550781 17.445313,33 18,33 L20,33 C20.554688,33 21,32.550781 21,32 C21,31.449219 20.554688,31 20,31 L18,31 Z M44,31 C43.445313,31 43,31.449219 43,32 C43,32.550781 43.445313,33 44,33 L46,33 C46.554688,33 47,32.550781 47,32 C47,31.449219 46.554688,31 46,31 L44,31 Z M43.109375,35.496094 C42.722656,35.5 42.355469,35.734375 42.199219,36.121094 C41.992188,36.632813 42.238281,37.214844 42.75,37.421875 L44.605469,38.171875 C44.730469,38.222656 44.855469,38.246094 44.980469,38.246094 C45.375,38.246094 45.75,38.007813 45.90625,37.621094 C46.113281,37.105469 45.867188,36.523438 45.355469,36.316406 L43.5,35.566406 C43.375,35.515625 43.242188,35.492188 43.109375,35.496094 Z M14.496094,38.410156 C14.367188,38.410156 14.234375,38.433594 14.109375,38.488281 C13.597656,38.703125 13.363281,39.289063 13.578125,39.796875 C13.917969,40.597656 14.308594,41.378906 14.746094,42.125 C14.933594,42.441406 15.265625,42.613281 15.609375,42.613281 C15.78125,42.613281 15.957031,42.574219 16.113281,42.480469 C16.589844,42.199219 16.75,41.585938 16.46875,41.109375 C16.078125,40.4375 15.722656,39.734375 15.421875,39.019531 C15.257813,38.636719 14.886719,38.410156 14.496094,38.410156 Z M40.613281,39.335938 C40.359375,39.339844 40.105469,39.441406 39.910156,39.640625 C39.527344,40.039063 39.539063,40.671875 39.9375,41.054688 L41.375,42.441406 C41.566406,42.632813 41.816406,42.722656 42.066406,42.722656 C42.332031,42.722656 42.59375,42.621094 42.789063,42.421875 C43.171875,42.023438 43.160156,41.390625 42.765625,41.003906 L41.328125,39.617188 C41.128906,39.425781 40.871094,39.332031 40.613281,39.335938 Z M32,43 C31.445313,43 31,43.449219 31,44 L31,46 C31,46.550781 31.445313,47 32,47 C32.554688,47 33,46.550781 33,46 L33,44 C33,43.449219 32.554688,43 32,43 Z" id="icon" fill="#FFFFFF" fill-rule="nonzero"></path>
    </g>
</svg>