<?xml version="1.0" encoding="UTF-8"?>
<svg width="64px" height="64px" viewBox="0 0 64 64" version="1.1" xmlns="http://www.w3.org/2000/svg" xmlns:xlink="http://www.w3.org/1999/xlink">
    <!-- Generator: Sketch 51 (57462) - http://www.bohemiancoding.com/sketch -->
    <title>website-icon-white</title>
    <desc>Created with Sketch.</desc>
    <defs></defs>
    <g id="website-icon" stroke="none" stroke-width="1" fill="none" fill-rule="evenodd">
        <path d="M5,8 C3.347656,8 2,9.347656 2,11 L2,53 C2,54.652344 3.347656,56 5,56 L59,56 C60.652344,56 62,54.652344 62,53 L62,11 C62,9.347656 60.652344,8 59,8 L5,8 Z M5,10 L59,10 C59.550781,10 60,10.449219 60,11 L60,20 L4,20 L4,11 C4,10.449219 4.449219,10 5,10 Z M28,12 C26.898438,12 26,12.898438 26,14 L26,16 C26,17.101563 26.898438,18 28,18 L56,18 C57.101563,18 58,17.101563 58,16 L58,14 C58,12.898438 57.101563,12 56,12 L28,12 Z M8,13 C6.894531,13 6,13.894531 6,15 C6,16.105469 6.894531,17 8,17 C9.105469,17 10,16.105469 10,15 C10,13.894531 9.105469,13 8,13 Z M14,13 C12.894531,13 12,13.894531 12,15 C12,16.105469 12.894531,17 14,17 C15.105469,17 16,16.105469 16,15 C16,13.894531 15.105469,13 14,13 Z M20,13 C18.894531,13 18,13.894531 18,15 C18,16.105469 18.894531,17 20,17 C21.105469,17 22,16.105469 22,15 C22,13.894531 21.105469,13 20,13 Z M28,14 L56,14 L56,16 L28,16 L28,14 Z M4,22 L60,22 L60,53 C60,53.550781 59.550781,54 59,54 L5,54 C4.449219,54 4,53.550781 4,53 L4,22 Z M7,48 C6.449219,48 6,48.449219 6,49 L6,51 C6,51.550781 6.449219,52 7,52 C7.550781,52 8,51.550781 8,51 L8,49 C8,48.449219 7.550781,48 7,48 Z M12,48 C11.449219,48 11,48.449219 11,49 L11,51 C11,51.550781 11.449219,52 12,52 C12.550781,52 13,51.550781 13,51 L13,49 C13,48.449219 12.550781,48 12,48 Z M17,48 C16.449219,48 16,48.449219 16,49 L16,51 C16,51.550781 16.449219,52 17,52 C17.550781,52 18,51.550781 18,51 L18,49 C18,48.449219 17.550781,48 17,48 Z M22,48 C21.449219,48 21,48.449219 21,49 L21,51 C21,51.550781 21.449219,52 22,52 C22.550781,52 23,51.550781 23,51 L23,49 C23,48.449219 22.550781,48 22,48 Z M27,48 C26.449219,48 26,48.449219 26,49 L26,51 C26,51.550781 26.449219,52 27,52 C27.550781,52 28,51.550781 28,51 L28,49 C28,48.449219 27.550781,48 27,48 Z M32,48 C31.449219,48 31,48.449219 31,49 L31,51 C31,51.550781 31.449219,52 32,52 C32.550781,52 33,51.550781 33,51 L33,49 C33,48.449219 32.550781,48 32,48 Z M37,48 C36.449219,48 36,48.449219 36,49 L36,51 C36,51.550781 36.449219,52 37,52 C37.550781,52 38,51.550781 38,51 L38,49 C38,48.449219 37.550781,48 37,48 Z M42,48 C41.449219,48 41,48.449219 41,49 L41,51 C41,51.550781 41.449219,52 42,52 C42.550781,52 43,51.550781 43,51 L43,49 C43,48.449219 42.550781,48 42,48 Z M47,48 C46.449219,48 46,48.449219 46,49 L46,51 C46,51.550781 46.449219,52 47,52 C47.550781,52 48,51.550781 48,51 L48,49 C48,48.449219 47.550781,48 47,48 Z M52,48 C51.449219,48 51,48.449219 51,49 L51,51 C51,51.550781 51.449219,52 52,52 C52.550781,52 53,51.550781 53,51 L53,49 C53,48.449219 52.550781,48 52,48 Z M57,48 C56.449219,48 56,48.449219 56,49 L56,51 C56,51.550781 56.449219,52 57,52 C57.550781,52 58,51.550781 58,51 L58,49 C58,48.449219 57.550781,48 57,48 Z" id="icon" fill="#FFFFFF" fill-rule="nonzero"></path>
    </g>
</svg>